<svg xmlns="http://www.w3.org/2000/svg" viewBox="-28 -4 140 140">
  <path fill="#2563eb" d="M1.40873 9.02534C0.863756 7.2549 0.863756 5.75684 1.40873 4.53115C1.95371 3.30546 3.04367 2.28405 4.6786 1.46693C5.9048 0.922179 7.40348 0.854085 9.17466 1.26265C10.9458 1.67121 12.3083 2.76071 13.262 4.53115C13.9432 6.71015 14.4882 9.57009 14.8969 13.111C15.4419 16.6518 15.8506 19.9884 16.1231 23.1207C17.0768 33.1986 17.7581 42.1189 18.1668 49.8816C18.4393 57.7805 18.3712 65.8155 17.9624 73.9868C17.9624 73.8506 18.0987 73.6463 18.3712 73.374C19.8698 71.195 21.1642 69.2202 22.2541 67.4498C23.4803 65.5432 24.9109 63.3642 26.5458 60.9128C27.772 58.87 29.3388 57.0314 31.2462 55.3972C33.1537 53.6268 35.1973 52.333 37.3772 51.5159C39.8296 50.6987 42.6226 50.4944 45.7563 50.903C49.0261 51.1754 51.751 52.0606 53.9309 53.5587C56.5196 55.3291 58.3589 57.5081 59.4488 60.0957C60.675 62.547 61.4925 64.8622 61.9012 67.0412C63.1274 75.2125 62.5824 84.6094 60.2663 95.2321C59.3126 99.7262 58.3589 103.948 57.4052 107.898C56.5877 111.847 56.2471 114.639 56.3833 116.273C56.3833 117.363 57.4052 117.907 59.4488 117.907C61.3562 117.907 64.6261 116.886 69.2584 114.843C72.5283 113.345 74.7763 112.119 76.0025 111.166C77.5012 110.213 78.9318 109.736 80.2942 109.736C81.6567 109.6 82.8147 109.94 83.7684 110.757C84.7221 111.711 85.2671 112.936 85.4034 114.435C85.6759 115.796 85.4034 117.294 84.5859 118.929C84.0409 119.201 83.5641 119.473 83.1553 119.746C82.8828 120.018 82.4741 120.359 81.9291 120.767C80.0217 121.721 78.0462 122.674 76.0025 123.627C74.0951 124.58 72.0514 125.398 69.8715 126.079C66.4654 127.304 63.1274 128.053 59.8576 128.326C56.7239 128.598 53.9309 128.189 51.4785 127.1C49.0261 126.01 47.1187 124.308 45.7563 121.993C44.5301 119.542 44.3257 116.205 45.1432 111.983C45.6881 109.123 46.3012 105.923 46.9825 102.382C47.7999 98.841 48.5493 95.7768 49.2305 93.1892C49.7755 91.0102 50.2523 88.6951 50.6611 86.2437C51.0698 83.6561 51.3423 81.0686 51.4785 78.481C51.4785 75.8934 51.2742 73.3059 50.8654 70.7183C50.5929 67.9945 49.9117 65.7475 48.8218 63.977C48.0043 62.8875 46.71 62.2747 44.9388 62.1385C43.1676 61.8661 41.7371 62.0023 40.6471 62.547C39.5571 62.9556 38.4672 63.6365 37.3772 64.5899C36.4235 65.407 34.993 67.3817 33.0855 70.514C32.1318 72.0121 30.7694 74.0549 28.9982 76.6425C27.3633 79.23 26.0008 81.2728 24.9109 82.7709C23.8209 84.269 22.9353 85.4266 22.2541 86.2437C21.5729 86.9246 20.8917 87.7417 20.2105 88.6951C19.2567 90.0569 18.1668 91.0783 16.9406 91.7593C16.5319 96.9344 15.8506 103.063 14.8969 110.145C14.0795 117.09 13.5345 123.423 13.262 129.143C12.9895 131.186 12.172 132.684 10.8096 133.637C9.58339 134.59 8.28907 134.999 6.92663 134.863C5.42794 134.726 4.13362 134.114 3.04367 133.024C1.95371 131.935 1.40873 130.368 1.40873 128.326C1.68122 122.47 2.29432 116.069 3.24803 109.123C4.33799 102.041 5.08733 95.6406 5.49606 89.9207C6.44977 78.0724 6.72226 67.2455 6.31353 57.44C6.04104 47.6345 5.2917 36.4671 4.0655 23.9379C3.79301 21.6227 3.4524 19.1713 3.04367 16.5837C2.63493 13.86 2.08995 11.3405 1.40873 9.02534Z"/>
</svg>
